<svg height="92" viewBox="0 0 55 92" width="55" xmlns="http://www.w3.org/2000/svg"><g fill="none" fill-rule="evenodd"><path d="m10.05 30.7167066s-13.27 11.914-9.11 31.718c4.16 19.805 27.72 28.716 27.72 28.716s-13.68-7.943-12.79-27.528c.49-10.783 7.45-17.739 13.76-21.86 3.53-2.306-2.84-8.983-9.82-11.485-3.68-1.322-9.76.439-9.76.439" fill="#fff"/><path d="m15.87 63.6227066c.46-10.001 6.48-16.71 12.38-20.918 5.91-4.209-3.26-8.954-3.26-8.954l-6.73.364c-24.85 35.648 10.4 57.036 10.4 57.036s-13.68-7.943-12.79-27.528" fill="#fff317"/><g fill="#99180b"><path d="m12.86 45.7587066-.96-.925s1.76-6.177 7.32-11.488l3.15 3.949s-6.08 2.961-9.51 8.464"/><path d="m16.05 31.2337066s-6.34 1.785-11.19 6.846l-1.21-1.156s6.82-13.874 19.32-14.354z"/><path d="m25.02 39.8377066s-1.52 6.408-6.37 11.469l1.2 1.156s13.58-7.387 13.5400882-19.894z"/></g><path d="m18.67 27.9577066 4.3-5.388c-12.5.48-19.32 14.354-19.32 14.354l.42.405c2.93-3.764 7.86-8.487 14.6-9.371" fill="#ff2a1a"/><path d="m54.31.37470663c2.22 2.129-4.62 19.62799997-29.31 39.44299997 0 0-6.06-2.571-8.88-8.516 0 0 7.39-10.848 16.83-19.025 9.06-7.84599997 19.31-13.86599997 21.36-11.90199997" fill="#ba2c19"/><path d="m19.68 34.7127066s7.87-10.388 17.05-18.808c6.97-6.38799997 14.39-11.90999997 17.9-13.27099997.17-1.133.05-1.907-.32-2.259-2.05-1.964-12.3 4.056-21.36 11.90199997-9.44 8.178-16.83 19.025-16.83 19.025 1.28 2.694 3.22 4.693 4.97 6.075-.58-.731-1.08-1.61-1.41-2.664" fill="#ba2c19"/><path d="m42.94 15.8467066c-1.02 1.064-2.71 1.099-3.77.078-1.07-1.021-1.1-2.712-.08-3.777s2.71-1.1 3.77-.079c1.07 1.021 1.1 2.713.08 3.778" fill="#ffe000"/><path d="m28.84 30.5467066c-1.02 1.065-2.71 1.1-3.77.079-1.07-1.022-1.1-2.713-.08-3.777 1.02-1.065 2.71-1.101 3.77-.079 1.07 1.021 1.1 2.712.08 3.777" fill="#ffe000"/><g fill="#fff317"><path d="m35.97 23.5037066c-1.12 1.173-2.98 1.211-4.16.087-1.17-1.125-1.21-2.987-.08-4.159 1.12-1.173 2.98-1.212 4.16-.087 1.17 1.125 1.21 2.987.08 4.159"/><path d="m42.94 15.8467066c-1.02 1.064-2.71 1.099-3.77.078-1.07-1.021-1.1-2.712-.08-3.777s2.71-1.1 3.77-.079c1.07 1.021 1.1 2.713.08 3.778"/><path d="m28.84 30.5467066c-1.02 1.065-2.71 1.1-3.77.079-1.07-1.022-1.1-2.713-.08-3.777 1.02-1.065 2.71-1.101 3.77-.079 1.07 1.021 1.1 2.712.08 3.777"/></g><path d="m51.88.17070663c-4.06.971-12.15 5.708-19.21 11.83199997-9.44 8.177-16.83 19.025-16.83 19.025.18.395.67 1.048.89 1.413.95-1.276 2.21-2.91 3.72-4.74 14.12-17.411 25.36-24.62699997 31.43-27.52999997" fill="#ff2a1a"/></g></svg>