<svg height="211" viewBox="0 0 436 211" width="436" xmlns="http://www.w3.org/2000/svg"><g fill="none"><path d="m435.998 205.642c0 2.761-34.667 5-77.429 5-42.764 0-77.431-2.239-77.431-5s34.667-5 77.431-5c42.762 0 77.429 2.239 77.429 5" fill="#c9c9c9"/><path d="m164.999 205.642c0 2.761-28.594 5-63.869 5-35.273 0-63.869-2.239-63.869-5s28.596-5 63.869-5c35.275 0 63.869 2.239 63.869 5" fill="#c9c9c9"/><path d="m294.685 23.432-79.417 85.715 5.711 19.819 64.756 14.075z" fill="#3682e0" fill-opacity=".183594"/><path d="m353.569 205.66h6v-191.018h-6z" fill="#ced8d7"/><path d="m269.779 143.041h166.219v-119.609h-166.219z" fill="#3682e0"/><path d="m62.325 205.457h23.115s-.247-8.497-8.879-9.726c-3.142-.447-5.806-.461-7.933-.3l2.901-31.369-10.254-3.426 2.131 35.705c-.367.113-.56.189-.56.189z" fill="#bad8d3"/><path d="m66.116 202.825-.136-6.295s.192-.076.559-.189l-2.068-34.638-3.196-1.067 2.131 35.705c-.367.113-.56.189-.56.189l-.521 8.927h23.115s-.004-.134-.028-.371z" fill="#a7c6c0"/><path d="m71.769 195.346-.008.085c.305-.023.624-.041.951-.056-.321-.014-.636-.024-.943-.029" fill="#fff"/><path d="m128.549 205.457h23.115s-.248-8.497-8.88-9.726c-3.14-.447-5.805-.461-7.932-.3l2.901-31.369-10.255-3.426 2.132 35.705c-.366.113-.559.189-.559.189z" fill="#bad8d3"/><path d="m132.34 202.825-.137-6.295s.194-.076.56-.189l-2.068-34.638-3.197-1.067 2.132 35.705c-.366.113-.559.189-.559.189l-.522 8.927h23.115s-.004-.134-.028-.371z" fill="#a7c6c0"/><path d="m137.992 195.346-.007.085c.305-.023.625-.041.952-.056-.322-.014-.637-.024-.945-.029" fill="#fff"/><path d="m53.921 106.52c0 10.159.269 36.633.409 49.831.045 4.275 3.524 7.711 7.799 7.711h74.356c4.307 0 7.799-3.491 7.799-7.799v-61.204s2.031-14.818-21.504-14.818c-23.536 0-41.102 1.174-53.925 3.395s-14.934 13.591-14.934 22.884" fill="#cae5e1"/><path d="m66.015 156.351c-.141-13.198-.408-39.672-.408-49.831 0-9.293 2.111-20.663 14.933-22.884 11.107-1.924 25.78-3.061 44.799-3.331-.819-.041-1.669-.064-2.559-.064-23.536 0-41.102 1.174-53.925 3.395s-14.934 13.591-14.934 22.884c0 10.159.269 36.633.409 49.831.045 4.275 3.524 7.711 7.799 7.711h11.686c-4.276 0-7.754-3.436-7.8-7.711" fill="#daf2f0"/><path d="m171.771 115.865s-7.614-15.778-30.805-18.826l-18.186-16.798s36.313-2.471 55.974 33z" fill="#cae5e1"/><path d="m169.913 124.109s-2.799-9.937 6.349-11.567c12.091-2.155 15.311 7.596 15.311 7.596z" fill="#cae5e1"/><path d="m161.087 134.493 42.869-7.858-1.883-10.275-42.87 7.858c-2.838.52-4.715 3.242-4.196 6.08.521 2.837 3.242 4.715 6.08 4.195" fill="#6e868e"/><path d="m4.776 145.322c.333-1.074 1.474-1.674 2.548-1.341 1.075.333 1.675 1.474 1.341 2.548-.333 1.074-1.473 1.675-2.548 1.341-1.074-.333-1.674-1.474-1.341-2.548zm45.443 9.323-41.714-14.449c-3.304-1.167-6.915.646-7.954 3.992-1.038 3.346.913 6.885 4.297 7.793l42.566 11.703c-.021 6.891 4.413 13.281 11.337 15.429 4.374 1.357 8.885.752 12.595-1.31l.969-3.123-10.573-3.281-2.29-9.078 6.946-5.925 10.572 3.281.969-3.123c-1.89-3.8-5.267-6.853-9.64-8.209-6.924-2.149-14.197.608-18.08 6.3z" fill="#64847e"/><path d="m67.452 77.655h59.733c12.747 0 17.099-6.352 17.099-24.307s-10.221-42.062-42.23-42.062-44.027 19.265-46.647 37.039-.535 29.33 12.045 29.33" fill="#cae5e1"/><path d="m65.905 49.305c2.538-17.18 15.497-31.607 46.508-31.607 5.841 0 10.85.261 15.158.747-6.298-4.374-14.649-7.159-25.517-7.159-32.009 0-44.027 19.265-46.647 37.039s-.535 29.33 12.045 29.33h10.122c-12.187 0-14.208-11.169-11.669-28.35" fill="#daf2f0"/><path d="m139.228 53.348c0-5.819-1.074-12.284-3.616-18.365-2.017-4.825-6.74-7.965-11.969-7.965h-28.926c-16.137 0-28.282 17.109-24.313 30.858 3.967 13.748 20.61 11.733 34.63 11.733h23.613c5.355 0 9.848-4.079 10.315-9.414.181-2.066.266-4.344.266-6.847" fill="#e4f4f2"/><path d="m139.228 53.348c0-5.819-1.074-12.284-3.616-18.365-2.017-4.825-6.74-7.965-11.969-7.965h-28.926c-16.137 0-28.282 17.109-24.313 30.858 3.967 13.748 20.61 11.733 34.63 11.733h23.613c5.355 0 9.848-4.079 10.315-9.414.181-2.066.266-4.344.266-6.847" fill="#e4f4f2"/><path d="m100.281 47.376c0 1.798-1.459 3.257-3.257 3.257-1.799 0-3.258-1.459-3.258-3.257 0-1.799 1.459-3.258 3.258-3.258 1.798 0 3.257 1.459 3.257 3.258" fill="#639296"/><path d="m132.377 47.376c0 1.798-1.459 3.257-3.257 3.257s-3.257-1.459-3.257-3.257c0-1.799 1.459-3.258 3.257-3.258s3.257 1.459 3.257 3.258" fill="#639296"/><g fill="#6e868e" transform="translate(198 106)"><path d="m13.939 13.861c1.202 6.554-.797 12.412-4.463 13.085-3.667.672-7.613-4.097-8.815-10.651s.797-12.412 4.463-13.084c3.667-.673 7.614 4.096 8.815 10.65"/><path d="m5.124 3.211c-3.666.672-5.665 6.53-4.463 13.084s5.148 11.323 8.815 10.651l13.769-2.524-4.351-23.736z"/><path d="m27.708 11.337c1.202 6.554-.797 12.412-4.463 13.084-3.667.673-7.613-4.096-8.814-10.65-1.202-6.554.797-12.412 4.463-13.085 3.667-.672 7.613 4.097 8.814 10.651"/></g><path d="m224.631 117.534c1.006 5.491-.668 10.397-3.739 10.96s-6.377-3.431-7.383-8.92c-1.007-5.491.667-10.397 3.738-10.961 3.072-.563 6.377 3.431 7.384 8.921" fill="#fff"/><g fill="#cae5e1" transform="translate(27 80)"><path d="m158.668 44.921c-1.397 1.188-3.513 1.018-4.702-.38l-3.521-4.139c-1.19-1.398-1.019-3.514.378-4.702 1.398-1.189 3.514-1.019 4.703.378l3.521 4.141c1.19 1.397 1.019 3.513-.379 4.702"/><path d="m167.914 51.637-.365.22c-1.473.884-3.4.402-4.284-1.071l-2.238-3.73c-.884-1.472-.402-3.4 1.07-4.284l.366-.219c1.473-.884 3.401-.402 4.284 1.07l2.239 3.73c.883 1.473.401 3.401-1.072 4.284"/><path d="m162.153 52.598c-1.398 1.189-3.514 1.018-4.703-.379l-3.544-4.166c-1.189-1.397-1.018-3.513.379-4.702 1.398-1.189 3.514-1.018 4.703.379l3.543 4.166c1.189 1.397 1.019 3.513-.378 4.702"/><path d="m156.137 54.13c-1.269 1.324-3.392 1.37-4.716.101l-3.949-3.784c-1.325-1.269-1.37-3.392-.102-4.716 1.27-1.325 3.392-1.37 4.717-.101l3.949 3.783c1.325 1.269 1.37 3.392.101 4.717"/><path d="m46.671 2.844-.133.02c-21.81 1.77-37.32 17.854-42.285 32.476-4.796 14.123-3.583 27.701-3.583 27.701l5.789.656c2.107-42.509 29.043-41.63 29.043-41.63l.245-.4 6.822.975s14-6 14-7 26-15 26-15-21.794.404-35.898 2.202"/></g><path d="m39.804 150.015c-.225-3.302-1.682-7.219-7.022-8.461-4.133-.961-8.839.295-11.201 2.275-3.08 2.584-3.187 6.246-3.187 6.246-.1.373-.127.772-.067 1.176l.704 4.758c.236 1.596 1.736 2.709 3.332 2.473.794-.118 1.47-.549 1.918-1.15l.024.53c.072 1.612 1.451 2.871 3.062 2.799.67-.03 1.277-.288 1.754-.692l-.004.032c-.179 1.5.901 2.874 2.4 3.054l.373.045c1.499.18 2.873-.9 3.054-2.399l.331-2.76c.48.345 1.067.551 1.7.551 1.613 0 2.933-1.32 2.933-2.934v-4.78c0-.264-.038-.519-.104-.763" fill="#daf2f0"/><g fill="#467ab6" transform="translate(269 23)"><path d="m.779 120.041h15.956c-7.457-10.465-12.777-21.765-15.956-33.227z"/><path d="m22.925 2.655c.904-.77 1.827-1.506 2.76-2.223h-24.906v36.377c4-13.162 11.38-24.996 22.146-34.154"/><path d="m120.928.432c9.211 5.74 17.839 13.094 25.411 21.995 9.614 11.301 16.498 23.881 20.659 36.769v-58.764z"/></g><path d="m435.998 143.041v-3.106c-.375 1.046-.774 2.081-1.194 3.106z" fill="#5fe6ed"/><path d="m56.583 5.66c-3.639-1.282-6.935-1.792-9.217-1.99-.588-1.909-2.536-3.104-4.54-2.71-2.143.421-3.539 2.5-3.117 4.643.421 2.143 2.5 3.538 4.643 3.117 1.482-.291 2.605-1.376 3.018-2.726 2.145.201 5.203.691 8.527 1.872 8.299 2.946 14.245 8.582 17.674 16.748l2.127-.893c-4.613-10.987-12.941-15.886-19.115-18.061" fill="#89ccc9"/><path d="m109.903 80.801c-.014.092-.029.185-.029.281v15.071c0 1.116.912 2.028 2.029 2.028 1.116 0 2.028-.912 2.028-2.028v-15.071c0-.152-.021-.3-.053-.444z" fill="#bad8d3"/><path d="m135.612 34.983c-2.017-4.825-6.74-7.965-11.969-7.965h-28.926c-3.786 0-7.347.951-10.537 2.57 2.717-1.115 5.663-1.749 8.759-1.749h28.926c5.229 0 9.952 3.14 11.968 7.965 2.542 6.081 3.616 12.546 3.616 18.365 0 2.503-.084 4.781-.265 6.846-.302 3.447-2.288 6.361-5.097 7.998 3.728-1.311 6.513-4.682 6.875-8.818.181-2.066.266-4.344.266-6.847 0-5.819-1.074-12.284-3.616-18.365" fill="#b8d3ce"/><path d="m373.99476 109.62324v-37.3060433c0-11.1927486-8.899016-19.3171967-21.160294-19.3171967-9.338074 0-17.356663 5.460733-19.967904 13.6740495-.108609 1.0406964.159448 2.9256432 3.179706 3.8704553 3.313734 1.0313418 4.536164-.6945772 4.979844-1.8334967 1.719259-5.0023588 6.354789-8.2367029 11.808354-8.2367029 7.431638 0 12.827432 5.0304225 12.827432 11.957485v2.9700775c0 1.3891543-1.832491 2.2942094-3.563304 2.6824243l-14.754666 3.9008576c-11.041158 2.5444443-15.343928 6.8732737-15.343928 15.4397255 0 9.9556059 8.852799 17.4790229 20.626491 17.5655529.159448.002338.314273-.025725.459856-.088869.549978-.24088 1.807071-1.059405 1.807071-3.51732 0-2.453237-1.252471-3.437806-1.802449-3.753523-.152515-.08653-.318895-.123948-.489897-.126287-7.121986-.091207-12.26821-4.300765-12.26821-10.0795539 0-5.3391235 2.888541-6.9785127 8.96603-8.4495196 0 0 10.689912-2.841452 14.900249-4.1160128.714047-.2151553 1.423472.3320874 1.409607 1.0851306l-.036973 2.3643688.030041 13.1197909c0 .159028.032352.318056.092433.463051 1.495109 3.550062 4.055511 6.428932 7.41084 8.370006.718669.371845.889671-.243219.889671-.63845" fill="#fff"/><path d="m209.920766 207.002146c0 1.654506-9.849863 2.997854-22.001096 2.997854-12.149041 0-21.998904-1.343348-21.998904-2.997854 0-1.658798 9.849863-3.002146 21.998904-3.002146 12.151233 0 22.001096 1.343348 22.001096 3.002146" fill="#c9c9c9"/><g fill="#d43f0c" transform="translate(173.920766 160)"><path d="m25 4.0011544c0 2.20952381-1.7893218 3.9988456-3.9988456 3.9988456s-4.0011544-1.78932179-4.0011544-3.9988456 1.7916306-4.0011544 4.0011544-4.0011544 3.9988456 1.79163059 3.9988456 4.0011544"/><path d="m34.4417793 46.0776447c-1.1978789 1.4100293-3.9332293 1.1779992-6.110345-.5220678-2.1771157-1.697836-2.9702743-4.2189327-1.7747214-5.6311931 1.1978788-1.4122604 3.9355552-1.1802302 6.1103449.5176057 2.1794417 1.700067 2.9726003 4.2233948 1.7747215 5.6356552"/><path d="m.6875151 47.3147178c-1.2375961-1.2396599-.7592877-3.725414 1.0724403-5.5548775 1.8295832-1.8316082 4.3176447-2.3098853 5.5530959-1.0723702 1.2375961 1.2353705.7571429 3.7232693-1.0724403 5.5527328-1.831728 1.8294635-4.3176447 2.3098853-5.5530959 1.0745149"/></g><path d="m206.200622 189.207614c2.571182 6.855478-1.960582 14.784837-10.122642 17.707093-8.164279 2.924425-16.865887-.264674-19.437069-7.122321-2.571182-6.855478 1.960581-14.782667 10.122641-17.707093 8.162059-2.924425 16.863667.264674 19.43707 7.122321" fill="#ffe570"/><path d="m206.920766 174.501115c0 5.797026-5.1472 10.498885-11.501128 10.498885-6.349416 0-11.498872-4.701859-11.498872-10.498885 0-5.801487 5.149456-10.501115 11.498872-10.501115 6.353928 0 11.501128 4.699628 11.501128 10.501115" fill="#ffe570"/><path d="m194.920766 173c0 1.657713-1.343558 3-3 3s-3-1.342287-3-3 1.343558-3 3-3 3 1.342287 3 3" fill="#a0843d"/><path d="m200.299003 174.29903c-1.373069 2.611278.928973 4.8755 7.943858 5.559157 4.80574.470406 7.166693-.194435 6.593449-2.521378-.575511-2.329033-12.745068-6.447702-14.537307-3.037779" fill="#d43f0c"/><path d="m180.920766 189.473801-2.738626-.896256.119829-.232123c.68629-1.91932-.732043-4.163182-3.172187-5.016451-2.440144-.85327-4.976151.010746-5.66462 1.927916l-.041395.184839c-.350771-.240721-.725507-.464247-1.141639-.642639-2.562151-1.098289-5.305134-.477143-6.126504 1.388444-.823549 1.865587.588249 4.268497 3.148221 5.366786.952092.410515 1.92815.57816 2.825774.535174-1.002202.909151-1.529447 2.084814-1.270182 3.232537.444455 1.985947 3.013142 3.114326 5.740874 2.518972 2.516399-.54807 4.259359-2.370671 4.167853-4.210466h2.087195z" fill="#ffe570"/></g></svg>